<?xml version="1.0" encoding="UTF-8"?>
<svg width="700px" height="619px" viewBox="0 0 700 619" version="1.1" xmlns="http://www.w3.org/2000/svg" xmlns:xlink="http://www.w3.org/1999/xlink">
    <!-- Generator: Sketch 60.1 (88133) - https://sketch.com -->
    <title>safari-pinned-tab</title>
    <desc>Created with Sketch.</desc>
    <defs>
        <path d="M0.117835821,90.8092537 C0.117835821,140.913881 40.735,181.536567 90.8451493,181.536567 L90.8451493,181.536567 C140.949776,181.536567 181.569701,140.913881 181.569701,90.8092537 L181.569701,90.8092537 C181.569701,40.7018657 140.949776,0.0819402985 90.8451493,0.0819402985 L90.8451493,0.0819402985 C40.735,0.0819402985 0.117835821,40.7018657 0.117835821,90.8092537" id="path-1"></path>
        <path d="M0.117835821,90.8092537 C0.117835821,140.913881 40.735,181.536567 90.8451493,181.536567 L90.8451493,181.536567 C140.949776,181.536567 181.569701,140.913881 181.569701,90.8092537 L181.569701,90.8092537 C181.569701,40.7018657 140.949776,0.0819402985 90.8451493,0.0819402985 L90.8451493,0.0819402985 C40.735,0.0819402985 0.117835821,40.7018657 0.117835821,90.8092537" id="path-3"></path>
        <radialGradient cx="49.9998089%" cy="49.9999064%" fx="49.9998089%" fy="49.9999064%" r="50.0008156%" gradientTransform="translate(0.499998,0.499999),scale(1.000000,0.999985),translate(-0.499998,-0.499999)" id="radialGradient-5">
            <stop stop-color="#9059FF" offset="0%"></stop>
            <stop stop-color="#6E008A" offset="100%"></stop>
        </radialGradient>
        <path d="M60.6084188,8.12921875 C21.4778743,55.076425 0.126680628,113.646738 0,175.535575 L0,175.535575 L0,176.673906 C0,177.371238 0.0055078534,178.063056 0.0137696335,178.760388 L0.0137696335,178.760388 C1.39348691,318.356181 113.25799,433.504038 252.650743,438.641688 L252.650743,438.641688 C401.880524,444.145919 525.036126,324.238019 525.036126,176.086825 L525.036126,176.086825 C525.036126,114.633475 504.06222,56.3305188 465.518262,9.45221875 L465.518262,9.45221875 C457.060953,-0.83135 441.534314,-1.49009375 432.082838,7.88666875 L432.082838,7.88666875 L399.636073,40.0741563 C391.500974,48.1417 390.550869,61.0767813 397.628461,70.08145 L397.628461,70.08145 C421.317738,100.212775 434.173068,137.185113 434.173068,176.086825 L434.173068,176.086825 C434.173068,273.798644 352.243749,352.721106 253.526492,347.655119 L253.526492,347.655119 C166.618073,343.19275 96.0431937,273.062725 91.149466,186.103038 L91.149466,186.103038 C88.7342723,143.270913 101.834702,102.321306 127.834524,69.5329563 L127.834524,69.5329563 C135.04155,60.4483563 134.435686,47.4443688 126.25377,39.2279875 L126.25377,39.2279875 L93.9942723,6.8255125 C89.5246492,2.3383375 83.6587853,0.105775 77.8232147,0.105775 L77.8232147,0.105775 C71.423089,0.105775 65.0560105,2.7903625 60.6084188,8.12921875" id="path-6"></path>
        <linearGradient x1="0%" y1="50.0003951%" x2="100.000053%" y2="50.0003951%" id="linearGradient-8">
            <stop stop-color="#FD1472" offset="0%"></stop>
            <stop stop-color="#FBBF80" offset="100%"></stop>
        </linearGradient>
        <path d="M61.4318429,8.12921875 C21.6210785,55.892275 0.217560209,115.683606 0.837193717,178.760388 L0.837193717,178.760388 C2.21415707,318.356181 114.086921,433.504038 253.476921,438.641688 L253.476921,438.641688 C402.706702,444.145919 525.862304,324.238019 525.862304,176.086825 L525.862304,176.086825 C525.862304,114.633475 504.885644,56.3305188 466.341686,9.45221875 L466.341686,9.45221875 C457.887131,-0.83135 442.354984,-1.49009375 432.903508,7.88666875 L432.903508,7.88666875 L400.459497,40.0741563 C392.329906,48.1417 391.374293,61.0767813 398.454639,70.08145 L398.454639,70.08145 C422.143916,100.212775 434.999246,137.185113 434.999246,176.086825 L434.999246,176.086825 C434.999246,273.798644 353.069927,352.721106 254.349916,347.655119 L254.349916,347.655119 C167.441497,343.19275 96.8666178,273.062725 91.9701361,186.103038 L91.9701361,186.103038 C89.5604503,143.270913 102.658126,102.321306 128.663455,69.5329563 L128.663455,69.5329563 C135.870482,60.4483563 135.25911,47.4443688 127.079948,39.2279875 L127.079948,39.2279875 L94.8176963,6.8255125 C90.3508272,2.3383375 84.4849634,0.105775 78.6493927,0.105775 L78.6493927,0.105775 C72.2465131,0.105775 65.8794346,2.7903625 61.4318429,8.12921875" id="path-9"></path>
        <linearGradient x1="9.95201958e-05%" y1="50.0003951%" x2="99.9997581%" y2="50.0003951%" id="linearGradient-11">
            <stop stop-color="#FF7959" offset="0%"></stop>
            <stop stop-color="#FDA172" offset="100%"></stop>
        </linearGradient>
        <path d="M55.1607879,0.374483412 C49.3891818,0.388251185 43.6010303,2.57732701 39.1613333,6.96373934 L39.1613333,6.96373934 L6.75981818,38.9572891 C-1.83278788,47.4437441 -2.1940303,61.0876066 5.74778788,70.1825972 L5.74778788,70.1825972 C59.1840909,131.369332 88.3730303,208.914934 88.3730303,290.808398 L88.3730303,290.808398 C88.3730303,372.597227 59.2475152,450.071237 5.92427273,511.227682 L5.92427273,511.227682 C-2.0120303,520.330934 -1.63975758,533.974796 6.96112121,542.452991 L6.96112121,542.452991 L39.384697,574.424512 C48.6336061,583.541531 63.7065152,583.145019 72.3184242,573.430479 L72.3184242,573.430479 C141.519788,495.336919 179.359242,395.875777 179.359242,290.808398 L179.359242,290.808398 C179.359242,185.611602 141.439818,86.062346 72.092303,7.93299052 L72.092303,7.93299052 C67.6388182,2.91601422 61.4646061,0.388251185 55.2600606,0.374483412 L55.2600606,0.374483412 L55.1607879,0.374483412 Z" id="path-12"></path>
        <linearGradient x1="0.00021962438%" y1="50.0001772%" x2="100.000444%" y2="50.0001772%" id="linearGradient-14">
            <stop stop-color="#FD1472" offset="0%"></stop>
            <stop stop-color="#FBBF80" offset="100%"></stop>
        </linearGradient>
        <path d="M55.985303,0.374483412 C50.213697,0.388251185 44.4255455,2.57732701 39.9858485,6.96373934 L39.9858485,6.96373934 L7.58709091,38.9572891 C-1.00827273,47.4437441 -1.36675758,61.0876066 6.57781818,70.1825972 L6.57781818,70.1825972 C60.0141212,131.369332 89.2030606,208.914934 89.2030606,290.808398 L89.2030606,290.808398 C89.2030606,372.597227 60.0747879,450.071237 6.75154545,511.227682 L6.75154545,511.227682 C-1.182,520.330934 -0.815242424,533.974796 7.78563636,542.452991 L7.78563636,542.452991 L40.2119697,574.424512 C49.4581212,583.541531 64.5337879,583.145019 73.145697,573.430479 L73.145697,573.430479 C142.344303,495.336919 180.186515,395.875777 180.186515,290.808398 L180.186515,290.808398 C180.186515,185.611602 142.264333,86.062346 72.9223333,7.93299052 L72.9223333,7.93299052 C68.4660909,2.91601422 62.2891212,0.388251185 56.0845758,0.374483412 L56.0845758,0.374483412 L55.985303,0.374483412 Z" id="path-15"></path>
        <linearGradient x1="-0.000309148474%" y1="50.0001772%" x2="99.9995805%" y2="50.0001772%" id="linearGradient-17">
            <stop stop-color="#FF7959" offset="0%"></stop>
            <stop stop-color="#FDA172" offset="100%"></stop>
        </linearGradient>
    </defs>
    <g id="safari-pinned-tab" stroke="none" stroke-width="1" fill="none" fill-rule="evenodd">
        <g id="alerti-logo" transform="translate(0.000000, 19.000000)">
            <g id="Group-3" transform="translate(181.000000, 200.000000)">
                <mask id="mask-2" fill="white">
                    <use xlink:href="#path-1"></use>
                </mask>
                <g id="Clip-2"></g>
                <path d="M0.117835821,90.8092537 C0.117835821,140.913881 40.735,181.536567 90.8451493,181.536567 L90.8451493,181.536567 C140.949776,181.536567 181.569701,140.913881 181.569701,90.8092537 L181.569701,90.8092537 C181.569701,40.7018657 140.949776,0.0819402985 90.8451493,0.0819402985 L90.8451493,0.0819402985 C40.735,0.0819402985 0.117835821,40.7018657 0.117835821,90.8092537" id="Fill-1" mask="url(#mask-2)"></path>
            </g>
            <g id="Group-6" transform="translate(181.000000, 200.000000)">
                <mask id="mask-4" fill="white">
                    <use xlink:href="#path-3"></use>
                </mask>
                <g id="Clip-5"></g>
                <path d="M0.117835821,90.8092537 C0.117835821,140.913881 40.735,181.536567 90.8451493,181.536567 L90.8451493,181.536567 C140.949776,181.536567 181.569701,140.913881 181.569701,90.8092537 L181.569701,90.8092537 C181.569701,40.7018657 140.949776,0.0819402985 90.8451493,0.0819402985 L90.8451493,0.0819402985 C40.735,0.0819402985 0.117835821,40.7018657 0.117835821,90.8092537" id="Fill-4" fill="url(#radialGradient-5)" mask="url(#mask-4)"></path>
            </g>
            <g id="Group-9" transform="translate(0.000000, 114.000000)">
                <mask id="mask-7" fill="white">
                    <use xlink:href="#path-6"></use>
                </mask>
                <g id="Clip-8"></g>
                <path d="M60.6084188,8.12921875 C21.4778743,55.076425 0.126680628,113.646738 0,175.535575 L0,175.535575 L0,176.673906 C0,177.371238 0.0055078534,178.063056 0.0137696335,178.760388 L0.0137696335,178.760388 C1.39348691,318.356181 113.25799,433.504038 252.650743,438.641688 L252.650743,438.641688 C401.880524,444.145919 525.036126,324.238019 525.036126,176.086825 L525.036126,176.086825 C525.036126,114.633475 504.06222,56.3305188 465.518262,9.45221875 L465.518262,9.45221875 C457.060953,-0.83135 441.534314,-1.49009375 432.082838,7.88666875 L432.082838,7.88666875 L399.636073,40.0741563 C391.500974,48.1417 390.550869,61.0767813 397.628461,70.08145 L397.628461,70.08145 C421.317738,100.212775 434.173068,137.185113 434.173068,176.086825 L434.173068,176.086825 C434.173068,273.798644 352.243749,352.721106 253.526492,347.655119 L253.526492,347.655119 C166.618073,343.19275 96.0431937,273.062725 91.149466,186.103038 L91.149466,186.103038 C88.7342723,143.270913 101.834702,102.321306 127.834524,69.5329563 L127.834524,69.5329563 C135.04155,60.4483563 134.435686,47.4443688 126.25377,39.2279875 L126.25377,39.2279875 L93.9942723,6.8255125 C89.5246492,2.3383375 83.6587853,0.105775 77.8232147,0.105775 L77.8232147,0.105775 C71.423089,0.105775 65.0560105,2.7903625 60.6084188,8.12921875" id="Fill-7" fill="url(#linearGradient-8)" mask="url(#mask-7)"></path>
            </g>
            <g id="Group-12" transform="translate(8.000000, 114.000000)">
                <mask id="mask-10" fill="white">
                    <use xlink:href="#path-9"></use>
                </mask>
                <g id="Clip-11"></g>
                <path d="M61.4318429,8.12921875 C21.6210785,55.892275 0.217560209,115.683606 0.837193717,178.760388 L0.837193717,178.760388 C2.21415707,318.356181 114.086921,433.504038 253.476921,438.641688 L253.476921,438.641688 C402.706702,444.145919 525.862304,324.238019 525.862304,176.086825 L525.862304,176.086825 C525.862304,114.633475 504.885644,56.3305188 466.341686,9.45221875 L466.341686,9.45221875 C457.887131,-0.83135 442.354984,-1.49009375 432.903508,7.88666875 L432.903508,7.88666875 L400.459497,40.0741563 C392.329906,48.1417 391.374293,61.0767813 398.454639,70.08145 L398.454639,70.08145 C422.143916,100.212775 434.999246,137.185113 434.999246,176.086825 L434.999246,176.086825 C434.999246,273.798644 353.069927,352.721106 254.349916,347.655119 L254.349916,347.655119 C167.441497,343.19275 96.8666178,273.062725 91.9701361,186.103038 L91.9701361,186.103038 C89.5604503,143.270913 102.658126,102.321306 128.663455,69.5329563 L128.663455,69.5329563 C135.870482,60.4483563 135.25911,47.4443688 127.079948,39.2279875 L127.079948,39.2279875 L94.8176963,6.8255125 C90.3508272,2.3383375 84.4849634,0.105775 78.6493927,0.105775 L78.6493927,0.105775 C72.2465131,0.105775 65.8794346,2.7903625 61.4318429,8.12921875" id="Fill-10" fill="url(#linearGradient-11)" mask="url(#mask-10)"></path>
            </g>
            <g id="Group-15" transform="translate(511.000000, 0.000000)">
                <mask id="mask-13" fill="white">
                    <use xlink:href="#path-12"></use>
                </mask>
                <g id="Clip-14"></g>
                <path d="M55.1607879,0.374483412 C49.3891818,0.388251185 43.6010303,2.57732701 39.1613333,6.96373934 L39.1613333,6.96373934 L6.75981818,38.9572891 C-1.83278788,47.4437441 -2.1940303,61.0876066 5.74778788,70.1825972 L5.74778788,70.1825972 C59.1840909,131.369332 88.3730303,208.914934 88.3730303,290.808398 L88.3730303,290.808398 C88.3730303,372.597227 59.2475152,450.071237 5.92427273,511.227682 L5.92427273,511.227682 C-2.0120303,520.330934 -1.63975758,533.974796 6.96112121,542.452991 L6.96112121,542.452991 L39.384697,574.424512 C48.6336061,583.541531 63.7065152,583.145019 72.3184242,573.430479 L72.3184242,573.430479 C141.519788,495.336919 179.359242,395.875777 179.359242,290.808398 L179.359242,290.808398 C179.359242,185.611602 141.439818,86.062346 72.092303,7.93299052 L72.092303,7.93299052 C67.6388182,2.91601422 61.4646061,0.388251185 55.2600606,0.374483412 L55.2600606,0.374483412 L55.1607879,0.374483412 Z" id="Fill-13" fill="url(#linearGradient-14)" mask="url(#mask-13)"></path>
            </g>
            <g id="Group-18" transform="translate(519.000000, 0.000000)">
                <mask id="mask-16" fill="white">
                    <use xlink:href="#path-15"></use>
                </mask>
                <g id="Clip-17"></g>
                <path d="M55.985303,0.374483412 C50.213697,0.388251185 44.4255455,2.57732701 39.9858485,6.96373934 L39.9858485,6.96373934 L7.58709091,38.9572891 C-1.00827273,47.4437441 -1.36675758,61.0876066 6.57781818,70.1825972 L6.57781818,70.1825972 C60.0141212,131.369332 89.2030606,208.914934 89.2030606,290.808398 L89.2030606,290.808398 C89.2030606,372.597227 60.0747879,450.071237 6.75154545,511.227682 L6.75154545,511.227682 C-1.182,520.330934 -0.815242424,533.974796 7.78563636,542.452991 L7.78563636,542.452991 L40.2119697,574.424512 C49.4581212,583.541531 64.5337879,583.145019 73.145697,573.430479 L73.145697,573.430479 C142.344303,495.336919 180.186515,395.875777 180.186515,290.808398 L180.186515,290.808398 C180.186515,185.611602 142.264333,86.062346 72.9223333,7.93299052 L72.9223333,7.93299052 C68.4660909,2.91601422 62.2891212,0.388251185 56.0845758,0.374483412 L56.0845758,0.374483412 L55.985303,0.374483412 Z" id="Fill-16" fill="url(#linearGradient-17)" mask="url(#mask-16)"></path>
            </g>
        </g>
    </g>
</svg>